<mxfile host="65bd71144e">
    <diagram id="IQMax4s9pFkqQXBCo4qv" name="Page-1">
        <mxGraphModel dx="1922" dy="407" grid="1" gridSize="10" guides="1" tooltips="1" connect="1" arrows="1" fold="1" page="1" pageScale="1" pageWidth="850" pageHeight="1100" math="0" shadow="0">
            <root>
                <mxCell id="0"/>
                <mxCell id="1" parent="0"/>
                <mxCell id="67" value="" style="edgeStyle=none;html=1;" parent="1" source="2" target="66" edge="1">
                    <mxGeometry relative="1" as="geometry"/>
                </mxCell>
                <mxCell id="2" value="FUNCTIONS TO LOAD WIND TURBINE DATA" style="whiteSpace=wrap;html=1;" parent="1" vertex="1">
                    <mxGeometry x="-40" y="210" width="120" height="60" as="geometry"/>
                </mxCell>
                <mxCell id="3" value="&lt;font face=&quot;Comic Sans MS&quot;&gt;&lt;i&gt;&lt;b&gt;INPUTS&lt;/b&gt;&lt;/i&gt;&lt;/font&gt;" style="text;strokeColor=none;align=center;fillColor=none;html=1;verticalAlign=middle;whiteSpace=wrap;rounded=0;" parent="1" vertex="1">
                    <mxGeometry x="-20" y="170" width="80" height="30" as="geometry"/>
                </mxCell>
                <mxCell id="4" value="" style="whiteSpace=wrap;html=1;" parent="1" vertex="1">
                    <mxGeometry x="150" y="60" width="620" height="690" as="geometry"/>
                </mxCell>
                <mxCell id="7" value="&lt;font face=&quot;Comic Sans MS&quot; style=&quot;font-size: 18px;&quot;&gt;&lt;b style=&quot;&quot;&gt;The BEM Solver&lt;/b&gt;&lt;/font&gt;" style="text;html=1;align=center;verticalAlign=middle;resizable=0;points=[];autosize=1;strokeColor=none;fillColor=none;" parent="1" vertex="1">
                    <mxGeometry x="380" y="15" width="160" height="40" as="geometry"/>
                </mxCell>
                <mxCell id="10" value="" style="edgeStyle=none;html=1;" parent="1" source="8" target="9" edge="1">
                    <mxGeometry relative="1" as="geometry"/>
                </mxCell>
                <mxCell id="36" value="" style="edgeStyle=orthogonalEdgeStyle;html=1;" parent="1" source="8" target="35" edge="1">
                    <mxGeometry relative="1" as="geometry"/>
                </mxCell>
                <mxCell id="8" value="&lt;br&gt;&lt;br&gt;&lt;span style=&quot;font-size:11.0pt;line-height:107%;font-family:&amp;quot;Aptos&amp;quot;,sans-serif;&lt;br/&gt;mso-ascii-theme-font:minor-latin;mso-fareast-font-family:Aptos;mso-fareast-theme-font:&lt;br/&gt;minor-latin;mso-hansi-theme-font:minor-latin;mso-bidi-font-family:&amp;quot;Times New Roman&amp;quot;;&lt;br/&gt;mso-bidi-theme-font:minor-bidi;mso-ansi-language:#0C00;mso-fareast-language:&lt;br/&gt;EN-US;mso-bidi-language:AR-SA&quot; lang=&quot;en-DK&quot;&gt;&lt;img src=&quot;data:image/png;base64,iVBORw0KGgoAAAANSUhEUgAAAFUAAAAXCAMAAABNu/MPAAAAAXNSR0IArs4c6QAAAGxQTFRFAAAAAAAAAAA6AABmADpmADqQAGa2OgAAOgA6OjqQOmaQOma2OpDbZgAAZjoAZjqQZma2ZpCQZpDbZrbbZrb/kDoAkGY6kLaQkNv/tmYAttv/tv//25A627Zm2////7Zm/9uQ/9u2//+2///b8aEbBwAAAAF0Uk5TAEDm2GYAAAAJcEhZcwAAEnQAABJ0Ad5mH3gAAAAZdEVYdFNvZnR3YXJlAE1pY3Jvc29mdCBPZmZpY2V/7TVxAAAA70lEQVRIS+2UyxKCMAxFWxQrCr6rouVV/v8fTRpxHIFMWDjjwiyygJNL7m0Hpf41KQGfxeWkARFcm5OImwZVszs30J61Tm7TJIF2C1bUxmVj+Q8PzLeWDaCKrkpVmpjC6PklYU/hifgtS+W4ps+CHxcd4QOsNQECQi0EgKrYa5Nie1nLdVfoJ9QnEh72OVKlHtaul53C0GkIEBx7U20tenfcwQmQsEuXAAj6DAKgOaq+sx4ywpHtQIfmNLTREiA06/BShZsFa5bFPkvr3aiqAKFZPH6KQVUmOoDtNXMTBQjJNhutV1/4/TBB/l/9aAIP/o8RdHuB9DwAAAAASUVORK5CYII=&quot; height=&quot;18&quot; width=&quot;68&quot;&gt;&lt;/span&gt;&lt;br&gt;&lt;div&gt;&lt;br/&gt;&lt;/div&gt;" style="whiteSpace=wrap;html=1;" parent="1" vertex="1">
                    <mxGeometry x="320" y="70" width="120" height="30" as="geometry"/>
                </mxCell>
                <mxCell id="14" value="" style="edgeStyle=none;html=1;" parent="1" source="9" target="13" edge="1">
                    <mxGeometry relative="1" as="geometry"/>
                </mxCell>
                <mxCell id="30" style="edgeStyle=orthogonalEdgeStyle;html=1;exitX=1;exitY=0.75;exitDx=0;exitDy=0;entryX=1;entryY=0.5;entryDx=0;entryDy=0;" parent="1" source="19" target="9" edge="1">
                    <mxGeometry relative="1" as="geometry">
                        <Array as="points">
                            <mxPoint x="560" y="506"/>
                            <mxPoint x="560" y="155"/>
                        </Array>
                    </mxGeometry>
                </mxCell>
                <mxCell id="39" value="" style="edgeStyle=orthogonalEdgeStyle;html=1;" parent="1" source="9" target="38" edge="1">
                    <mxGeometry relative="1" as="geometry">
                        <Array as="points">
                            <mxPoint x="600" y="170"/>
                            <mxPoint x="600" y="170"/>
                        </Array>
                    </mxGeometry>
                </mxCell>
                <mxCell id="9" value="&lt;span style=&quot;font-size:11.0pt;line-height:107%;font-family:&amp;quot;Aptos&amp;quot;,sans-serif;&lt;br/&gt;mso-ascii-theme-font:minor-latin;mso-fareast-font-family:Aptos;mso-fareast-theme-font:&lt;br/&gt;minor-latin;mso-hansi-theme-font:minor-latin;mso-bidi-font-family:&amp;quot;Times New Roman&amp;quot;;&lt;br/&gt;mso-bidi-theme-font:minor-bidi;mso-ansi-language:#0C00;mso-fareast-language:&lt;br/&gt;EN-US;mso-bidi-language:AR-SA&quot; lang=&quot;en-DK&quot;&gt;&lt;img src=&quot;data:image/png;base64,iVBORw0KGgoAAAANSUhEUgAAAJAAAAAwCAMAAADJhANkAAAAAXNSR0IArs4c6QAAALdQTFRFAAAAAAAAAAA6AABmADo6ADpmADqQAGa2OgAAOgA6OgBmOjoAOjo6OjpmOjqQOmaQOma2OpC2OpDbZgAAZgA6ZgBmZjoAZjo6ZjpmZjqQZmY6Zma2ZpCQZpDbZrbbZrb/kDoAkDo6kGY6kGZmkGaQkJBmkLaQkLb/kNv/tmYAtmY6tmZmtpA6tpBmttuQttv/tv//25A625Bm27Zm27aQ29uQ2/+22////7Zm/9uQ/9u2//+2///buhaoeAAAAAF0Uk5TAEDm2GYAAAAJcEhZcwAAEnQAABJ0Ad5mH3gAAAAZdEVYdFNvZnR3YXJlAE1pY3Jvc29mdCBPZmZpY2V/7TVxAAADUklEQVRYR+1Y2XbaMBBFUBp3SUJNC+kWnLRNMWkKLmmxsP7/uzqL5QUbW4qFTx+qB2NzxtLVzJ0ZXQ8G/0cvHlAPFxvzhaLLtbnxkyxV8GZn86J8vbAxt7ZVgZ++8zhfGr0tX5jZGU1WNYpHHK/9TKR3rRNFz61c2jpfyUAFZ/QsL9eRKaCTukh6GSNaAG09Mb67QN9wlOVs+B38OnTMqHiYEaIZUDS8HsSC3RnCj5z89nz1dRdqCtpF5qi1KSDpwcLanSGRiJ5U4NhDBbcUbkOhh3ZgiATT5GFAtJfkyqKGmTjR0EPMfQ2ZAdFT5DhivE0eTRxKprCwzkjiEDAJYCXvAZq6FcPPJrs3sTHMMgIUCXYHPRC11RcMWHS2c1cJsl3DvLmzKlsBs93209SXH5HNVKrhrz3V9mS6SCuBiQdabdJKrW494PGzo56PPYhKKCZEHq7UkeA+m7wFWBxFFyPvZaazHYbHMSDwdsdubxcygzrR+TwE6aa91khu9YC0cF0nagKbzAT0FRqFKlI1DMdrKO+um18j01ZY4EcbtX0lxATgCbH45eFdBjbyuar2NchDWCNUiHfSO19CNnK7w0RM3m0Kla8HVHnIaN30QrShdI59XVYRYaVjukdYBygt7PijbpYFQNXlM4SObjSp1eMc8kl7KAWEHooxatx4ehoZh3S0AJVGABxaIa8yjdBbyAhVziENKBr9xBNwv1mGB8v7O7jsPyCpY44bx0gFUBTVj4YWfoowrgQUPihHkz9TsZDIpGSqqzM+ivNTC1+LXa2Mjt+dO5kFIhNT3euNdXQ/yr6qo4/KG3eH1Vp/8XmxRkcf11u9KPuq5DgAlOvorLDtSZGh7FArULRbz0U+5533UAOVARV1dHrmlR4fgUBK3y+j0bdr+RIBdhx5L2wEVNLRfJ7POhLLRVfnwHpAlR5T0tFc+xEHSSiawlk7yP3S5KGyjmbFii2bLgjIXrkci6xZyMo6mgAR+eht3Im7Q6AFoJwm9HUIAZXD1pHO/Hohyw6StphlJR3NgVIBSJ+r+ZKbt/HHwFbQqbKv0dGltC/q6LQOyZkYr6F9g7LJv4q0rtduoL/BtltmFiet1E/IjxP3su7K3sK3Zqb/2nnIDLWh1V+KknQGn3ZhzQAAAABJRU5ErkJggg==&quot; height=&quot;38&quot; width=&quot;115&quot;&gt;&lt;/span&gt;" style="whiteSpace=wrap;html=1;" parent="1" vertex="1">
                    <mxGeometry x="315" y="120" width="135" height="70" as="geometry"/>
                </mxCell>
                <mxCell id="16" value="" style="edgeStyle=none;html=1;" parent="1" source="13" target="15" edge="1">
                    <mxGeometry relative="1" as="geometry"/>
                </mxCell>
                <mxCell id="41" value="" style="edgeStyle=orthogonalEdgeStyle;html=1;" parent="1" source="13" target="40" edge="1">
                    <mxGeometry relative="1" as="geometry"/>
                </mxCell>
                <mxCell id="13" value="&lt;span style=&quot;font-size:11.0pt;line-height:107%;font-family:&amp;quot;Aptos&amp;quot;,sans-serif;&lt;br/&gt;mso-ascii-theme-font:minor-latin;mso-fareast-font-family:Aptos;mso-fareast-theme-font:&lt;br/&gt;minor-latin;mso-hansi-theme-font:minor-latin;mso-bidi-font-family:&amp;quot;Times New Roman&amp;quot;;&lt;br/&gt;mso-bidi-theme-font:minor-bidi;mso-ansi-language:#0C00;mso-fareast-language:&lt;br/&gt;EN-US;mso-bidi-language:AR-SA&quot; lang=&quot;en-DK&quot;&gt;&lt;img src=&quot;data:image/png;base64,iVBORw0KGgoAAAANSUhEUgAAAIwAAAAZCAMAAADUtTb8AAAAAXNSR0IArs4c6QAAAJ9QTFRFAAAAAAAAAAA6AABmADpmADqQAGZmAGa2OgAAOgA6OgBmOjo6OjpmOjqQOmaQOma2OpCQOpC2OpDbZgAAZgA6ZgBmZjoAZjpmZma2ZpDbZrbbZrb/kDoAkDo6kGY6kLbbkNvbkNv/tmYAtmY6tpA6tpBmttuQttvbttv/tv//25A625CQ27Zm29uQ2//b2////7Zm/9uQ/9u2//+2///biWgJRQAAAAF0Uk5TAEDm2GYAAAAJcEhZcwAAEnQAABJ0Ad5mH3gAAAAZdEVYdFNvZnR3YXJlAE1pY3Jvc29mdCBPZmZpY2V/7TVxAAACGUlEQVRIS+1W+1PCMAxuJ5Op4AMUX/VBJwoTpdv6//9tpm0GLXTd5h3nnUd+Ycfy+JJ8SUbIQQ4V+MsKyNlw0SW+TCntTUl2Pu9iVemWt6Fgkl2tlOYyUSGaRbJ4LvnRguRnj83atoacJZTSUcBIMvM2iyDZWMNyRTI3ZgY4iABtkp+0Ab/xxntzkidRIAWhfKN3fA6CkayvoGurNXioarzKk3CldALZiPsyNiGNb/zR6g2V0SHLsbaqSpNFL+Eo2icHm/JmEcCMr4xbxYQmMKp6X5Nz3U9scZ5Ap8Xx9ToTDtQwYmWnlcUIEqllDRYjM7YtOMPjbxY9IGSVLOYgqH6uFwVCPk03YHYhIxjdSCy+5W9XX7d1WSWszUynvS22oanKCNWp+soYJpp6C+pjoDtN5VjpVCTEHMAYBn4zid42Kc6k4Rk0CWm0kvkoA3/bEI3+LpisqUtqAt+HADgwTRYY4d9HLhhdyXU/NWegTavlBe8Xd2HSSAYB5JtvYtEQp4n3YU2AZ/kcvaYuj10wHKa4YOgQ2y+S6J5kXvY78HK1gAeBI4J7pphQcEjI5wcbTA0vKnHASHY5gcuEDjuu4LTxfGxt3RK2hQtmKznbofd8hHvV1ElnBwkYivy09rA60DsWpg3K6mobXUi2qF8EzintfLVbobG+Z4Dxhjx+QYYZ2L/7nmmDCHXgkHXQ3rOqaB7QPSP4R+5/AFfXOOzZioGBAAAAAElFTkSuQmCC&quot; height=&quot;20&quot; width=&quot;112&quot;&gt;&lt;/span&gt;" style="whiteSpace=wrap;html=1;" parent="1" vertex="1">
                    <mxGeometry x="320" y="210" width="130" height="30" as="geometry"/>
                </mxCell>
                <mxCell id="18" value="" style="edgeStyle=none;html=1;" parent="1" source="15" target="17" edge="1">
                    <mxGeometry relative="1" as="geometry"/>
                </mxCell>
                <mxCell id="43" value="" style="edgeStyle=orthogonalEdgeStyle;html=1;" parent="1" source="15" target="42" edge="1">
                    <mxGeometry relative="1" as="geometry"/>
                </mxCell>
                <mxCell id="15" value="&lt;span style=&quot;font-size:11.0pt;line-height:107%;font-family:&amp;quot;Aptos&amp;quot;,sans-serif;&lt;br/&gt;mso-ascii-theme-font:minor-latin;mso-fareast-font-family:Aptos;mso-fareast-theme-font:&lt;br/&gt;minor-latin;mso-hansi-theme-font:minor-latin;mso-bidi-font-family:&amp;quot;Times New Roman&amp;quot;;&lt;br/&gt;mso-bidi-theme-font:minor-bidi;mso-ansi-language:#0C00;mso-fareast-language:&lt;br/&gt;EN-US;mso-bidi-language:AR-SA&quot; lang=&quot;en-DK&quot;&gt;&lt;img src=&quot;data:image/png;base64,iVBORw0KGgoAAAANSUhEUgAAAGAAAAAXCAMAAADDYbpzAAAAAXNSR0IArs4c6QAAAJBQTFRFAAAAAAAAAAA6AABmADo6ADpmADqQAGZmAGa2OgAAOgA6OgBmOjo6OjqQOmaQOma2OpC2OpDbZgAAZgA6ZgBmZma2ZpDbZrbbZrb/kDoAkGY6kJC2kLbbkNv/tmYAtmY6tpA6tpBmttv/tv/btv//25A625Bm25CQ27Zm29u22////7Zm/9uQ/9u2//+2///bmcqAPgAAAAF0Uk5TAEDm2GYAAAAJcEhZcwAAEnQAABJ0Ad5mH3gAAAAZdEVYdFNvZnR3YXJlAE1pY3Jvc29mdCBPZmZpY2V/7TVxAAABn0lEQVRIS+2VXVfDIAyGoc66+jFd1WmnMp1WZ2nL//93EhIYYEerd55jb3aAPAl5EzLG/r/fKKBeLt58rl5sx938AFLVVRM6bM/vxyIkoW5dcD67Ix+qWn7z1p4++XshACdJqC3yLdtxe0l5FOiDjuvcSyoC4DwF9SXA/Q25VdV8QA4/hQjABBKQyIL028Kmsit43tDSlyACIEAK6sswuLTx6uyR1UtB2ghnFQNGoQQknfiojLVtC11reXJN6dlAei8CxiAR1bSmtdmX3F58HyAGTA8chlTl+gO9UQZYNpc6cwE8AFwLDk2dgHx74dn2pV54h64GUQBVQU9QgEEIMwbfaEsNYWxrp5BZ4rcHYIXtnYIkXzH1DF2AttTS+qfZXYp5d2u8mndAsjmA6UaeGYUTEGPvMCcW2kxiNehRyiJb6RSoQuYlk5s9YBoZew+rPADZxKEVsGMOj5W+DGaekVTg1oQBRiUwxgem6cbOQ7wVyNbbdzJhBGvbD5xHE0e7DtCtz14fcAyOQ6rKRqe+J6h2ueaLz/J4wp9RgP21xReieTbQwxhjiwAAAABJRU5ErkJggg==&quot; height=&quot;18&quot; width=&quot;77&quot;&gt;&lt;/span&gt;" style="whiteSpace=wrap;html=1;" parent="1" vertex="1">
                    <mxGeometry x="325" y="260" width="120" height="40" as="geometry"/>
                </mxCell>
                <mxCell id="20" value="" style="edgeStyle=none;html=1;" parent="1" source="17" target="19" edge="1">
                    <mxGeometry relative="1" as="geometry"/>
                </mxCell>
                <mxCell id="45" value="" style="edgeStyle=orthogonalEdgeStyle;html=1;" parent="1" source="17" target="44" edge="1">
                    <mxGeometry relative="1" as="geometry"/>
                </mxCell>
                <mxCell id="17" value="&lt;br&gt;&lt;br&gt;&lt;br&gt;&lt;p style=&quot;text-align:center&quot; align=&quot;center&quot; class=&quot;MsoNormal&quot;&gt;&lt;span style=&quot;font-size:11.0pt;line-height:107%;font-family:&amp;quot;Aptos&amp;quot;,sans-serif;&lt;br/&gt;mso-ascii-theme-font:minor-latin;mso-fareast-font-family:Aptos;mso-fareast-theme-font:&lt;br/&gt;minor-latin;mso-hansi-theme-font:minor-latin;mso-bidi-font-family:&amp;quot;Times New Roman&amp;quot;;&lt;br/&gt;mso-bidi-theme-font:minor-bidi;mso-ansi-language:#0C00;mso-fareast-language:&lt;br/&gt;EN-US;mso-bidi-language:AR-SA&quot; lang=&quot;en-DK&quot;&gt;&lt;img src=&quot;data:image/png;base64,iVBORw0KGgoAAAANSUhEUgAAAL0AAAAXCAMAAABpjr6KAAAAAXNSR0IArs4c6QAAAKJQTFRFAAAAAAAAAAA6AABmADo6ADpmADqQAGa2OgAAOgA6OgBmOjoAOjpmOjqQOmaQOma2OpDbZgAAZgA6ZgBmZjoAZjpmZpDbZrbbZrb/kDoAkDo6kGYAkGY6kJC2kLbbkNv/tmYAtmY6tmZmtpA6tpBmttuQttvbttv/tv/btv//25A625Bm25CQ27Zm27aQ29u22////7Zm/9uQ/9u2//+2///byeBI/gAAAAF0Uk5TAEDm2GYAAAAJcEhZcwAAEnQAABJ0Ad5mH3gAAAAZdEVYdFNvZnR3YXJlAE1pY3Jvc29mdCBPZmZpY2V/7TVxAAACiUlEQVRYR+2WYXvaIBDHwarLOtuarpvGuQa3ta5Z3QwJ3/+r7X8QkiCYkpd9HnkRFY/f/TnujjB2GZcIXCLwDiNQbRPOp6sY5SNMLa7+8vIGeQha8nVwdUuVyXzPDmes3KUjTGmh+oWw8GWfoTJPzSA0oN6h1un8yFj9+a0IQcMIU61YzPZMJpO+Xl/9WKhLFZM8Jme0Gt9UPnBO8ujzZg+baoOJO8SDsZLMi6Wg6Njhqw/7bzAlR07Q40/C7wzDodbph1jxAVOZrFiVrhFhfGZXL0xl86P6ZvQKkHGmMukF31Mf9t9i9GKZLHJWNLntUM+VBRNIWTNsxAOmNq6EhJM1kgtpLm9IvcrwtVyaqbOxD/tvMY16vQWNcakCAYscvqkVZj71c8cXz4ZHP9Um79T78aADCvu3mE5948uh0hFFiu+Zltykm6teZTR7+MRnOiAUpZKSZyj2J/5F26EajKfeoZ5X70WqbypMMgRij9m/idkb0mmHupUfe23hNO9P/Pf/1hhPvUs1J9eoGT6FztQ6MdGmMNMJkied8k01FFdPvV+G7VWt69827hbjq3eoJf/K1E8Upsom+Y4P5VFr2t0OBV8x9SNHU1ui52Cxbj4Pdk+Y1exueOo7KDskfNr4bzG6qPWjqVro7FPRSfn09shen7NFLq+HatiasrLdJKZmj5TtoFCXrzb4Apoekq7aBd0C7fD7fQedPOJ2MJYWQ4S1ftSpvbUDVKyo0bc7WYNJVMTdEbvwO0oYrfclIlaEqSUqICr//eQdrpe4f6m46/voe/8UioBi/68R7R9OYsziVFsrqK+217+/N1k3brFuz0pMYl6UUeARJzzW/5bf/kvxXncZ7yEC/wGh7lQ/Mzab8wAAAABJRU5ErkJggg==&quot; height=&quot;18&quot; width=&quot;151&quot;&gt;&lt;/span&gt;&lt;span style=&quot;mso-fareast-font-family:&amp;quot;Times New Roman&amp;quot;;mso-fareast-theme-font:minor-fareast&quot; lang=&quot;en-DK&quot;&gt;&lt;/span&gt;&lt;/p&gt;&lt;p align=&quot;center&quot; class=&quot;MsoNormal&quot;&gt;&lt;span style=&quot;font-size:11.0pt;line-height:107%;font-family:&amp;quot;Aptos&amp;quot;,sans-serif;&lt;br/&gt;mso-ascii-theme-font:minor-latin;mso-fareast-font-family:Aptos;mso-fareast-theme-font:&lt;br/&gt;minor-latin;mso-hansi-theme-font:minor-latin;mso-bidi-font-family:&amp;quot;Times New Roman&amp;quot;;&lt;br/&gt;mso-bidi-theme-font:minor-bidi;mso-ansi-language:#0C00;mso-fareast-language:&lt;br/&gt;EN-US;mso-bidi-language:AR-SA&quot; lang=&quot;en-DK&quot;&gt;&lt;img src=&quot;data:image/png;base64,iVBORw0KGgoAAAANSUhEUgAAAL4AAAAXCAMAAACCuQWJAAAAAXNSR0IArs4c6QAAALFQTFRFAAAAAAAAAAA6AABmADo6ADpmADqQAGa2OgAAOgA6OgBmOjoAOjpmOjqQOmaQOma2OpDbZgAAZgA6ZgBmZjoAZjo6ZjpmZma2ZpDbZrbbZrb/kDoAkDo6kGYAkGY6kGaQkJBmkJC2kLbbkNv/tmYAtmY6tmZmtpA6tpBmttuQttvbttv/tv/btv//25A625Bm25CQ27Zm27aQ29u22////7Zm/7aQ/9uQ/9u2//+2///bkg0+hQAAAAF0Uk5TAEDm2GYAAAAJcEhZcwAAEnQAABJ0Ad5mH3gAAAAZdEVYdFNvZnR3YXJlAE1pY3Jvc29mdCBPZmZpY2V/7TVxAAACqUlEQVRYR+1Wa3faMAy1odCsawvpug0aRrvG6R6s6djw4vj//7BJcuLE1InDOGef0AeSGPlKunrYjJ3kxMCJgaMYENPdUfuP2KzWEednyzBCt6JOzju2lx+eA8CDzTs4FreIphu25XdB9wcrVkj6K9DC5wHcQ1EZc3DLGPNevguRxAYr1v6KyYYV0aifl4NRGXNwxSgN8k4KPkV1C2W3YDkfPzOd8elu27grETifB7qiw3wBwBg4Pq82YF2tYGGGDebglnFX1e4F5VMs49lOYdmjjy+pHD8sdVI3sYB1SGoR9dHfYb6IlkzFd5A8eCbIDcDqTwTt4Epv0QsoWiM2Nz5Fci2fAzhxkGOhIzqKTuBDzqHm+qrfb57ooIwjGFohlOIKVl1cAaENEp8icEdmKhdRhdDrNb1KrfseRtA/r/k6ZPOk34xffn+N2+Q6EENLUXJbb0U0wc4p3uAveW5rBb8k1k8f+3vmRTWnXPdNbrdv+QSZdnDb+9FYJa+paiuKphzUGosvJw7Jc2nphMRnEJUJrUP23NeJ6RMP+7D6KyIHHVyTPXTIpt1vqq1YNWMxw11V51YjoRk0+fgb1mr/5GlQye1qfNenoIkOaaGyN1AOruQLpr9Ag5Zx/xljFZszQo5TwKbOVfc7kwNxru9NN+kESoGge6RBZduIn9VTK+dLpp9SJgFCYQw0gm6JfRf3BW8M1xjkRX8TW0VZG/nzHibTAgnhcEIZyujVSIGH7mX91RFDgzp6xCFWCSxPHuEdYuI47dUKXtDLTlzrVR9b+F8+8KTIwveQxhSVvRi0w4/basjeAOr+CkV52P/Y4eXNwAuABxq8Uh+H3HrByM+BZ8UBEYD7an3x4/MQD7ywmZmrQdFJ4BYWRPAp6DW//h3bvvknjNOm/8rAXyApVnOu8y53AAAAAElFTkSuQmCC&quot; height=&quot;18&quot; width=&quot;152&quot;&gt;&lt;/span&gt;&lt;span lang=&quot;en-DK&quot;&gt;&lt;/span&gt;&lt;/p&gt;&lt;br&gt;&lt;br&gt;&lt;br&gt;&lt;div&gt;&lt;br/&gt;&lt;/div&gt;" style="whiteSpace=wrap;html=1;" parent="1" vertex="1">
                    <mxGeometry x="300" y="320" width="160" height="70" as="geometry"/>
                </mxCell>
                <mxCell id="22" value="" style="edgeStyle=none;html=1;" parent="1" source="19" target="21" edge="1">
                    <mxGeometry relative="1" as="geometry"/>
                </mxCell>
                <mxCell id="47" value="" style="edgeStyle=orthogonalEdgeStyle;html=1;" parent="1" source="19" target="46" edge="1">
                    <mxGeometry relative="1" as="geometry"/>
                </mxCell>
                <mxCell id="19" value="&lt;p align=&quot;center&quot; class=&quot;MsoNormal&quot;&gt;&lt;span style=&quot;font-size:11.0pt;line-height:107%;font-family:&amp;quot;Aptos&amp;quot;,sans-serif;&lt;br/&gt;mso-ascii-theme-font:minor-latin;mso-fareast-font-family:Aptos;mso-fareast-theme-font:&lt;br/&gt;minor-latin;mso-hansi-theme-font:minor-latin;mso-bidi-font-family:&amp;quot;Times New Roman&amp;quot;;&lt;br/&gt;mso-bidi-theme-font:minor-bidi;mso-ansi-language:#0C00;mso-fareast-language:&lt;br/&gt;EN-US;mso-bidi-language:AR-SA&quot; lang=&quot;en-DK&quot;&gt;&lt;img src=&quot;data:image/png;base64,iVBORw0KGgoAAAANSUhEUgAAAI4AAABCCAMAAAC2CR71AAAAAXNSR0IArs4c6QAAALFQTFRFAAAAAAAAAAA6AABmADo6ADpmADqQAGa2OgAAOgA6OgBmOjoAOjpmOjqQOmaQOma2OpDbZgAAZgA6ZgBmZjoAZjo6ZjpmZmZmZma2ZpCQZpC2ZpDbZrbbZrb/kDoAkDo6kGY6kGaQkJBmkLaQkLbbkNv/tmYAtmY6tpA6tpBmttuQttvbttv/tv//25A625Bm25CQ27Zm27aQ29u22////7Zm/7aQ/9uQ/9u2//+2///bktEvkQAAAAF0Uk5TAEDm2GYAAAAJcEhZcwAAEnQAABJ0Ad5mH3gAAAAZdEVYdFNvZnR3YXJlAE1pY3Jvc29mdCBPZmZpY2V/7TVxAAAC2klEQVRoQ+1Za3ebMAzFpEnY1jbQtXslZek2yB6pWzY8Y///HzZJhgBr2nIIzJwMfeghBuzL1ZUsuY4z2n/PwM+raDgcZJdscjsYOPJ8ywcEB3gZ4TwljpGdkZ22yWNo2nGHk5X12mOMnSzbUju+NzJwFAwkHpt+PksH8i3cXTmCzQeCRnq+40jvuoATQ8owZiWTxVi3yRfPJNEdxv4uiA8dopsGs8WoAHxlMBmz6yyCwxn86cJ+XTK2OGQiICZN3ge+fNdulnhWyRDq4ouTHBYBwnOX4KFFg7zDH65UdbP5nmpUqDc9dlvSa/Lh3Phdf8MioyMN7HOcCt42gJPk0omnW8hm7i6dtZPCE2/FvijhQNuL9RXH5ldv2CxNzNI8R0OPcr+mrE4RibO0hKOCRZphdsD17iIx+bTSIVwKQCMQVgz31OvbSrbvFIyjLiKnhEPLgEpyJVOiAAQqwKQNt3QIA8KHgX7UY+Z3I27EoII5RWK+HG409ERhOK4/Rr3BEcVelWtTelPc5UxUE5KaX3BEoL96Yoc+uyJlJ1ujU8xeR0hE7QgFPLcBpM9uzYcoagdHgmJJNiZyaLweRHzyHQu6/iILo7gIdDGJgBJScnaTGo7iub4pc7AOQd36a4NE1Zof0E8+/e8ruMSujjPIdnmNgpelSUzKp9WRx9f9BweJm8fzsQ5r92wfJNbhWD9I/Isd27Xo8cHpoIGgyNpbidttHI7PWa1z554X+2cnw+O3k1Uz0A/hdLyXSG+2dRLc4ptYHU73B4kqwI0datEmYPp6Jlu/ykvRuGOy2yDm7ofU9FRQqbaZoNN3BCrFVIB0addMjWPKQzohsmsqoCYP4VCDZdlMTU68DAaO9EjDxlkxydqS6RC7YiMawZamStehG2G/bgETnhmc5wvf4Q4BP+5/hKeRfGld2AUdKHBhhZ29DsE8ZFVDdVR8Dvq5vh+It/CgQMfwP4VjsT/EVU7VCFkgYgAAAABJRU5ErkJggg==&quot; height=&quot;53&quot; width=&quot;114&quot;&gt;&amp;nbsp; &amp;nbsp;&lt;/span&gt;&lt;img style=&quot;font-family: Aptos, sans-serif; font-size: 11pt; background-color: transparent;&quot; src=&quot;data:image/png;base64,iVBORw0KGgoAAAANSUhEUgAAALEAAABBCAMAAACpZbXuAAAAAXNSR0IArs4c6QAAAK5QTFRFAAAAAAAAAAA6AABmADo6ADpmADqQAGa2OgAAOgA6OgBmOjoAOjpmOjqQOmaQOma2OpDbZgAAZgA6ZgBmZjoAZjo6ZjpmZjqQZmZmZma2ZpCQZpC2ZpDbZrbbZrb/kDoAkDo6kGYAkGY6kLaQkLbbkNv/tmYAtmY6tmZmtpA6tpBmttuQttvbttv/tv//25A625Bm25CQ27Zm27aQ2////7Zm/9uQ/9u2//+2///bgkPobgAAAAF0Uk5TAEDm2GYAAAAJcEhZcwAAEnQAABJ0Ad5mH3gAAAAZdEVYdFNvZnR3YXJlAE1pY3Jvc29mdCBPZmZpY2V/7TVxAAADSUlEQVRoQ+1aa3ebMAy1adKyNWlgy95JybpB9mjKmoKB///HJlmYJoHmmB4g+AR/gEJk+3K5kixcxoY2MHBaBp4++KcFUHP2ZM4vHmr2Oam5uNmEZiEGugbE7Wtm4HjguMzAoIoOVGEZlfOyO5tzPlo0SEzmXUYNDtfBUKl71cEsTU4Rm6UyzPqmiYIFt02+sTbH2tp8/GMapZ9M8bvQWrKYG+R0wnYYE/aeIgIInNT66IwB1gXijUYyKh7jpH+wzEM9mLRESV0QBcF+br1WhUQccjiY0oDeaPvVdcQXPcThoS/GvDqMpx/1K/06tozFtrVgAZ/pBWNhayDO/uAqTe+11bHV43TfKnU/a8S7YLyBeGlppdA6tq9BHDjFcilZQbSeRTEHVeDhn81nNKQ0CZ1ALVPEHCwBPp6nGzDIu1bZvgbUsT7xNFKIcTGdfQdQMvkIe+KD/xKrAQSe9P2DykrCXrLEvQUbOHsQ/YuuZdumAafvfCIQmowxYloglrCldDMPTrFDFggq5xofRD5f0bVs2zBigmL5oaRyzSf3eM45hns5RDxlK3/3snhEuqm6Upcd24YBo1qp0cvfXvMxJnhSxTNifLAYhUEcK6rpTLkq70oc79g2jViOt1uoPNkwfQkx6ngN0snXKvuI1ZXsipLZs20VMUpYSrSMOLz4q34sWEU6Uc9oXXSFX/dtW0Gscp70/DkQJXOePOSeB9gge2S/VeAO+ZJlv8Bn4W6CsIuu8nn2bFuADFomJMkK8toNTg+6lofUVXkOL/kEI69sEKnHP1G9cBtTq+oqfzywPQa5xT2JtVa2I3DatsOeRAsCLA1pUtlB4M8BcTcFKSWWqmL+HDjuwruOzTFwXMFOgl/lR8um3k2pKG5q4GIcYV9u2PaFUrvubC3sSZQgpC4u1qB8qguuW/vk7lqt+QONqrtbcFWzhda3KHTkL2bsqtBamf6J4qVvRaendQcBFXF5XSW/8va9pfBVAhYsUr9mbA5SLUrkGoRYqCpZAg/IDfvaMm8Wye9U5HkLKk8zz/LXvKd7hVCLYbVKDQpSPoKrx3tv4ou3BvhhoQR0yLinHFfLFQN0z/V8ADy8Ai3fPpojC/wamAWwMXuu7T8JEmNIUt1tPwAAAABJRU5ErkJggg==&quot; height=&quot;52&quot; width=&quot;142&quot;&gt;&lt;/p&gt;&lt;p align=&quot;center&quot; class=&quot;MsoNormal&quot;&gt;&lt;span lang=&quot;en-DK&quot;&gt;&lt;/span&gt;&lt;/p&gt;" style="whiteSpace=wrap;html=1;" parent="1" vertex="1">
                    <mxGeometry x="282.5" y="420" width="200" height="115" as="geometry"/>
                </mxCell>
                <mxCell id="24" value="" style="edgeStyle=none;html=1;" parent="1" source="21" target="23" edge="1">
                    <mxGeometry relative="1" as="geometry"/>
                </mxCell>
                <mxCell id="49" value="" style="edgeStyle=orthogonalEdgeStyle;html=1;" parent="1" source="21" target="48" edge="1">
                    <mxGeometry relative="1" as="geometry"/>
                </mxCell>
                <mxCell id="21" value="&lt;p align=&quot;center&quot; class=&quot;MsoNormal&quot;&gt;&lt;span style=&quot;font-size:11.0pt;line-height:107%;font-family:&amp;quot;Aptos&amp;quot;,sans-serif;&lt;br/&gt;mso-ascii-theme-font:minor-latin;mso-fareast-font-family:Aptos;mso-fareast-theme-font:&lt;br/&gt;minor-latin;mso-hansi-theme-font:minor-latin;mso-bidi-font-family:&amp;quot;Times New Roman&amp;quot;;&lt;br/&gt;mso-bidi-theme-font:minor-bidi;mso-ansi-language:#0C00;mso-fareast-language:&lt;br/&gt;EN-US;mso-bidi-language:AR-SA&quot; lang=&quot;en-DK&quot;&gt;&lt;img src=&quot;data:image/png;base64,iVBORw0KGgoAAAANSUhEUgAAAMgAAAAZCAMAAABD5JEmAAAAAXNSR0IArs4c6QAAAKJQTFRFAAAAAAAAAAA6AABmADo6ADpmADqQAGa2OgAAOgA6OgBmOjo6OjqQOmZmOmaQOma2OpC2OpDbZgAAZgA6ZjoAZjo6ZmZmZma2ZpCQZpC2ZpDbZrbbZrb/kDoAkGYAkGY6kJBmkLaQkLbbkNv/tmYAtmY6tmZmtpBmttv/tv/btv//25A625Bm27Zm27aQ29u22////7Zm/9uQ/9u2//+2///b5p3DPgAAAAF0Uk5TAEDm2GYAAAAJcEhZcwAAEnQAABJ0Ad5mH3gAAAAZdEVYdFNvZnR3YXJlAE1pY3Jvc29mdCBPZmZpY2V/7TVxAAAC7UlEQVRYR+1Xa1fbMAyNWxjZ1sEaumeblY0AZSZbE+L//9emh+0oiU+cHvjSnfoDBEeWdK+uFJMkp3Vi4MgZ+LtS6urIMWD6zfWvpJzd/gdIAEL9dgDEPCx+TwanL3cx2yZTFzGbl7/Xy74Pk3/cH+C3fr8R1sGkm2xpcmWXtA6E0XGF1KlSkLVWat4SXg5axOQO2p9Pk1TXrSkkPUivTje4Db9CAuiY12kcSFJShc0PYaqHrV5ZmM8rCXisRPqNqCBm21/gsoLQSHa9GK12k32eAKROkayW8SSpAEfVDWxy1nN9udOicmNAOiVxPLgDZarOt4y0kIDDDotlRUCeQD20NuYO6C+5TuYBnMEDV71q3YGg0ZZ8YsCfQJdgdByIOyCosUnL2Hq2Tiru9SaLtny12BMQvW6uoXo4h+5v9fxmXb/DbijOd6YAdgkIWgR7zAZkRmiNAhEZJgVn6LZEbBKB5aYnusJ1v/IRMTcbHzO3ktXY2bjoFf4gSnSQljbgRCAyQ6sZseVjI38uN+E5rCsSPVhp0AjoxoncKZL/Ri/4xDUaLApIpRRlEI8D+toDXvwi6W5s64fej61KTGgosp1/vqebDJsAJwYAMXlwjDNYCjitIuKAAyK2RGzg2DLrCHZQAtLy+oEzMKl5/nlFcmbIEbiiTjdbNfveoYbAt6WL94g4gM6RBrHlY9PeE2ucZ2Z0cbooDjv/PLPEM3spzug+oi/2vYsJBWRhT5ta4oCbhiJpHxu42Zdfs2X9Bd1HvumMkb/smLSeP95D6l7gBbx5zmjmFpQqak1+TGBLBBQKGLktyAzt11pstc1VpVD7Ql3tYQa7QT9aFDDDz2YKNeaPvM/H5B9WavYNcVhwNIDtxHRO24CuomaL36SzrgTbHMQBNyb9Vr8bonKaZDC8MoSACFe9YsWDBO7P8UOHW/SvDEFpddy+6PZ7eIJTT3RudHwIJtgoi6/9/8jUVEftQnptoGnWr+L95OTIGPgH1xxfVm+RegcAAAAASUVORK5CYII=&quot; height=&quot;20&quot; width=&quot;160&quot;&gt;&lt;/span&gt;&lt;span lang=&quot;en-DK&quot;&gt;&lt;/span&gt;&lt;/p&gt;&lt;p align=&quot;center&quot; class=&quot;MsoNormal&quot;&gt;&lt;span style=&quot;font-size:11.0pt;line-height:107%;font-family:&amp;quot;Aptos&amp;quot;,sans-serif;&lt;br/&gt;mso-ascii-theme-font:minor-latin;mso-fareast-font-family:Aptos;mso-fareast-theme-font:&lt;br/&gt;minor-latin;mso-hansi-theme-font:minor-latin;mso-bidi-font-family:&amp;quot;Times New Roman&amp;quot;;&lt;br/&gt;mso-bidi-theme-font:minor-bidi;mso-ansi-language:#0C00;mso-fareast-language:&lt;br/&gt;EN-US;mso-bidi-language:AR-SA&quot; lang=&quot;en-DK&quot;&gt;&lt;span style=&quot;font-size: 11pt; line-height: 107%;&quot; lang=&quot;en-DK&quot;&gt;&lt;img src=&quot;data:image/png;base64,iVBORw0KGgoAAAANSUhEUgAAAOAAAAAYCAMAAADUMgGnAAAAAXNSR0IArs4c6QAAAL1QTFRFAAAAAAAAAAA6AABmADo6ADpmADqQAGZmAGa2OgAAOgA6OgBmOjoAOjo6OjpmOjqQOmZmOmaQOma2OpC2OpDbZgAAZgA6ZgBmZjoAZjo6ZjpmZjqQZmZmZma2ZpCQZpC2ZpDbZrbbZrb/kDoAkDo6kGYAkGY6kJBmkLaQkLbbkNv/tmYAtmY6tmZmtpA6tpBmttv/tv+2tv/btv//25A625Bm27Zm27aQ2//b2////7Zm/9uQ/9u2//+2///bENMkxQAAAAF0Uk5TAEDm2GYAAAAJcEhZcwAAEnQAABJ0Ad5mH3gAAAAZdEVYdFNvZnR3YXJlAE1pY3Jvc29mdCBPZmZpY2V/7TVxAAADcklEQVRYR+1XbVvTMBRt9oKrbwNddaCirDp0EZkQhmvW/P+f5X1J1qTrlm74ScgHHmhzb84599zbkCRP60mBR6fA3UvR+fIfszZffySLzuwghiY/WmKguR7etk+gTuaxzWUmBrE9+7zXzw8jWGYEw+RviWfbpV9Nqq3NXMpslCSFEF0STqedi0hytatGq2kYrlMhIL9y+bfmLiiryWEzrfvTdkIFghKX+tIpaqCEPSBaT5Bg+9FS9Gr6LCih+RZzriKHFixzshpbweOV5EBezKW2OKc6JmsVz9IGDfyIMvu4E+t97QxNCavKbEMsEZrJuV30yVxZqlGGfgmdPuugRSr6U1TA5OcIrDy9jCktR2ymO/AerYn5CUVaYF3Ld7O1iOYacsNGdk3hyZyszlDS8gMpjxC+D5f8l1eBCEEb5mlnuVRosGzQbwVZqHz/G4GoUUy4YrgkguqC2GDZr2aqe3mhXwBqYO0+E7I/NxKqQARxr+cjdrFE5hUEfMTa0doNxA+TVHX3xEMDesERLFpx9AfaW7++sR5hBLZGgvsTFyK1KJCR9b/CORIu2oQ/aDoqb1CvBwFS8CDsQzAIk+gO70mFBgW2cNUA7S8njWOogk6tBLAViAKucy1DRwSL3yBB/I2q65eGXuNbglB1kVc279dNoYMwOt3jskbDICiRySeJPFqA/UTDGKrAwdfENh6kHNj+apogZUajmQli9vViy9KnqTPzINCGlhYNw5BQwMXZiU7hN+g81YcvT+D8BotWKBC1nQkNw5mR2qNpwpgptydt5jbu3noQ9iEYhmEPek8qNPTwjtoHIeC0cfelekcFfzN49JWdyp7uvg+5LxLZow+QGizJinQ+6ojSEgSvg1tO0SCssoTlsh4YcMJycZ6N9CeSGtHqdKObNrnyTQYxqu7NFRi8YeBJ2LPKKJkkCdGz1MGooT47nZlf7F8Hgc5xTW3tvU3nIIxk8554aIoUTCPFmyVcpGjMwV1ucx7WT4E+BGg6hQi+1Hio3F6TH49F5zONHj6QPhQ00PVY9Odwg+vP0ToOgo20njBT/Mr20NKNyw+zVyCXqAHNTj8e9nKzKyuCOzPGbzz18EMv94cRc1EbV6bKopHED/pv4mGg94n2L8A2Dtq8ldj//P/BfXC33dvUByU0Zewfsbb5n/Y9DgX+AtSjhn3wv1NMAAAAAElFTkSuQmCC&quot; height=&quot;19&quot; width=&quot;179&quot;&gt;&lt;/span&gt;&lt;/span&gt;&lt;/p&gt;" style="whiteSpace=wrap;html=1;" parent="1" vertex="1">
                    <mxGeometry x="285" y="560" width="190" height="90" as="geometry"/>
                </mxCell>
                <mxCell id="51" value="" style="edgeStyle=orthogonalEdgeStyle;html=1;" parent="1" source="23" target="50" edge="1">
                    <mxGeometry relative="1" as="geometry"/>
                </mxCell>
                <mxCell id="23" value="&lt;br&gt;&lt;span style=&quot;font-size:11.0pt;line-height:107%;font-family:&amp;quot;Aptos&amp;quot;,sans-serif;&lt;br/&gt;mso-ascii-theme-font:minor-latin;mso-fareast-font-family:Aptos;mso-fareast-theme-font:&lt;br/&gt;minor-latin;mso-hansi-theme-font:minor-latin;mso-bidi-font-family:&amp;quot;Times New Roman&amp;quot;;&lt;br/&gt;mso-bidi-theme-font:minor-bidi;mso-ansi-language:#0C00;mso-fareast-language:&lt;br/&gt;EN-US;mso-bidi-language:AR-SA&quot; lang=&quot;en-DK&quot;&gt;&lt;img src=&quot;data:image/png;base64,iVBORw0KGgoAAAANSUhEUgAAAMYAAAAXCAMAAABnJ8DlAAAAAXNSR0IArs4c6QAAAMNQTFRFAAAAAAAAAAA6AABmADo6ADpmADqQAGZmAGaQAGa2OgAAOgA6OgBmOjoAOjpmOjqQOmZmOmaQOma2OpC2OpDbZgAAZgA6ZgBmZjoAZjo6ZjpmZjqQZmaQZpCQZpC2ZpDbZra2ZrbbZrb/kDoAkDo6kGYAkGZmkGaQkJBmkLaQkLbbkNv/tmYAtmY6tmZmtpA6ttuQttvbttv/tv+2tv/btv//25A625Bm27Zm2//b2////7Zm/9uQ/9u2/9vb//+2///b/Y5OqQAAAAF0Uk5TAEDm2GYAAAAJcEhZcwAAEnQAABJ0Ad5mH3gAAAAZdEVYdFNvZnR3YXJlAE1pY3Jvc29mdCBPZmZpY2V/7TVxAAADGklEQVRYR+1Wa1fTQBDNBosStVVslIcINKJIWx8IS0y2Jv//V3FnZnezSaq0p3zweLofeshm5s6dO48QRduzVWCrwP+sQJ0peyYbpVkqtXNLCCaJzzdCigCF8+RqHZQqHSPyJDLPp+u49W21igkBsuytCVRn47aHBlJ9wXCrnhJByc2MilVdltvpVyxE+TTpkHoQNledRtBU17J7+yDObNelkL9U8SkknUPSPGE98kQNvowKXJFVyXfmQKk3bdg6O0FNo+rwUlRskHYLIE3gLy/El+HonsqHE1awzjgSp2FhNHcs8ZS/PIinidCpA9HxVUTafJ3qnctz8wIOGp1eIsrdtHRIUY47Viw41bufaM9Ij+WFQyK3y3MQ+zSl9gUv8fX3INyoKHhiOCMcB8NPnF6dgawFCWiSPiQjC0X9IElpJa3BV2JA/BiEH7tplLu/0OJmeEMWPaQZtGF2jS9HmMGYMcNDdUC12NoRonAmIQYfMQCegKNJ7tIoTgBJwynEmogBhWQqePc7706A3iM6s0kgpUVqZd/4ir5Mszvh1GUDWlQcnWGIAk+f2Q8JhIVkYxyRhRVwy0OuWHkRE0DUzPHwR1vBOpsgvXxUcEt3kVg+asrGlyPIfXcleW4BDIyqo++IPg8JhDvOF1VkYVTXZ3wlI8cbmTLuqUcJVW+h1uAQPz7lAIkxiV3j6zPrT5kf1TYhPa7SSYlidECsniw/U2k4O4X4ShqQxDSJp3LX3uolXtAmkJS7SH6shAH5+sx6E+5HNYQxydlxUaVnR64vGhCbhvYLGnrVcy6xG2BUqshPUp7weLp4f7FXf77JnhX1N6jSNKJI7RPlxxDJFsLs196XI8wAd4sKL47x4LqC1oE9DUyV8m7GDxk6AsGeoU+/9auw0ofXfkoIq0ziU/nA4+V+odXgOlocqPiD/dLY2Npu/ipVXLo2ktRgrl4X3tcOHcEZfJiCoIDyw+JhJEeXqCPQ23Htee08af917JuhXf/qu8bLR4RaGpU27Z/OfMN/AwPcR4RaxnbpZlpD5X/E1CTcutuzVWBFBe4BnviKSyt/gtMAAAAASUVORK5CYII=&quot; height=&quot;18&quot; width=&quot;158&quot;&gt;&lt;/span&gt;&lt;br&gt;&lt;div&gt;&lt;br/&gt;&lt;/div&gt;" style="whiteSpace=wrap;html=1;" parent="1" vertex="1">
                    <mxGeometry x="290" y="680" width="180" height="40" as="geometry"/>
                </mxCell>
                <mxCell id="32" style="edgeStyle=orthogonalEdgeStyle;html=1;exitX=0;exitY=0.5;exitDx=0;exitDy=0;entryX=-0.015;entryY=0.652;entryDx=0;entryDy=0;entryPerimeter=0;" parent="1" source="9" target="19" edge="1">
                    <mxGeometry relative="1" as="geometry">
                        <Array as="points">
                            <mxPoint x="210" y="155"/>
                            <mxPoint x="210" y="495"/>
                        </Array>
                    </mxGeometry>
                </mxCell>
                <mxCell id="35" value="1" style="ellipse;whiteSpace=wrap;html=1;" parent="1" vertex="1">
                    <mxGeometry x="730" y="72.5" width="30" height="25" as="geometry"/>
                </mxCell>
                <mxCell id="38" value="2" style="ellipse;whiteSpace=wrap;html=1;" parent="1" vertex="1">
                    <mxGeometry x="726.25" y="150" width="30" height="30" as="geometry"/>
                </mxCell>
                <mxCell id="40" value="3" style="ellipse;whiteSpace=wrap;html=1;" parent="1" vertex="1">
                    <mxGeometry x="730" y="212.5" width="30" height="25" as="geometry"/>
                </mxCell>
                <mxCell id="42" value="4" style="ellipse;whiteSpace=wrap;html=1;" parent="1" vertex="1">
                    <mxGeometry x="732.5" y="267.5" width="25" height="25" as="geometry"/>
                </mxCell>
                <mxCell id="44" value="5" style="ellipse;whiteSpace=wrap;html=1;" parent="1" vertex="1">
                    <mxGeometry x="726.25" y="338.44" width="33.75" height="33.12" as="geometry"/>
                </mxCell>
                <mxCell id="46" value="6" style="ellipse;whiteSpace=wrap;html=1;" parent="1" vertex="1">
                    <mxGeometry x="732.5" y="459.38" width="30" height="36.25" as="geometry"/>
                </mxCell>
                <mxCell id="48" value="7" style="ellipse;whiteSpace=wrap;html=1;" parent="1" vertex="1">
                    <mxGeometry x="732.5" y="587.5" width="30" height="35" as="geometry"/>
                </mxCell>
                <mxCell id="50" value="8" style="ellipse;whiteSpace=wrap;html=1;" parent="1" vertex="1">
                    <mxGeometry x="730" y="685" width="32.5" height="30" as="geometry"/>
                </mxCell>
                <mxCell id="60" value="" style="edgeStyle=orthogonalEdgeStyle;html=1;" parent="1" source="57" target="59" edge="1">
                    <mxGeometry relative="1" as="geometry"/>
                </mxCell>
                <mxCell id="61" value="" style="edgeStyle=orthogonalEdgeStyle;html=1;" parent="1" source="4" target="57" edge="1">
                    <mxGeometry relative="1" as="geometry"/>
                </mxCell>
                <mxCell id="57" value="&lt;div&gt;&lt;ul&gt;&lt;li&gt;&lt;span style=&quot;font-size:11.0pt;line-height:107%;font-family:&amp;quot;Aptos&amp;quot;,sans-serif;&lt;br/&gt;mso-ascii-theme-font:minor-latin;mso-fareast-font-family:Aptos;mso-fareast-theme-font:&lt;br/&gt;minor-latin;mso-hansi-theme-font:minor-latin;mso-bidi-font-family:&amp;quot;Times New Roman&amp;quot;;&lt;br/&gt;mso-bidi-theme-font:minor-bidi;mso-ansi-language:#0C00;mso-fareast-language:&lt;br/&gt;EN-US;mso-bidi-language:AR-SA&quot; lang=&quot;en-DK&quot;&gt;&lt;img src=&quot;data:image/png;base64,iVBORw0KGgoAAAANSUhEUgAAACIAAAAXCAMAAABZLm3uAAAAAXNSR0IArs4c6QAAAGBQTFRFAAAAAAAAAAA6AABmADpmADqQAGa2OgAAOgA6OjqQOma2OpDbZgAAZjqQZma2ZpCQZpDbZrbbZrb/kDoAkLaQkNv/tmYAtmY6tv//25A627Zm2////7Zm/9uQ//+2///bSgR1SwAAAAF0Uk5TAEDm2GYAAAAJcEhZcwAAEnQAABJ0Ad5mH3gAAAAZdEVYdFNvZnR3YXJlAE1pY3Jvc29mdCBPZmZpY2V/7TVxAAAAk0lEQVQ4T82RzRKDIAyEg61iFW3VakV+fP+3VAbRzOSQo82Bw5cluxCAfyivcsPkcLLnktrHzEl0wSnW4fRZpHh+XyjYAXyTmM46sALNJMDJGgBnJwCmENuV45mMgHUIFvp6HgHg1e4TcSwCItFiP7AEgzDALG9Vu/aYhUC6ZWX2gUlUJtldgP6tV+zWfh23ktv7G6ptCfM7pOqpAAAAAElFTkSuQmCC&quot; height=&quot;18&quot; width=&quot;27&quot;&gt;&lt;/span&gt;&lt;/li&gt;&lt;li&gt;&lt;span style=&quot;font-size: 11pt; line-height: 107%;&quot; lang=&quot;en-DK&quot;&gt;&lt;img src=&quot;data:image/png;base64,iVBORw0KGgoAAAANSUhEUgAAAGAAAAAXCAMAAADDYbpzAAAAAXNSR0IArs4c6QAAAJBQTFRFAAAAAAAAAAA6AABmADo6ADpmADqQAGZmAGa2OgAAOgA6OgBmOjo6OjqQOmaQOma2OpC2OpDbZgAAZgA6ZgBmZma2ZpDbZrbbZrb/kDoAkGY6kJC2kLbbkNv/tmYAtmY6tpA6tpBmttv/tv/btv//25A625Bm25CQ27Zm29u22////7Zm/9uQ/9u2//+2///bmcqAPgAAAAF0Uk5TAEDm2GYAAAAJcEhZcwAAEnQAABJ0Ad5mH3gAAAAZdEVYdFNvZnR3YXJlAE1pY3Jvc29mdCBPZmZpY2V/7TVxAAABn0lEQVRIS+2VXVfDIAyGoc66+jFd1WmnMp1WZ2nL//93EhIYYEerd55jb3aAPAl5EzLG/r/fKKBeLt58rl5sx938AFLVVRM6bM/vxyIkoW5dcD67Ix+qWn7z1p4++XshACdJqC3yLdtxe0l5FOiDjuvcSyoC4DwF9SXA/Q25VdV8QA4/hQjABBKQyIL028Kmsit43tDSlyACIEAK6sswuLTx6uyR1UtB2ghnFQNGoQQknfiojLVtC11reXJN6dlAei8CxiAR1bSmtdmX3F58HyAGTA8chlTl+gO9UQZYNpc6cwE8AFwLDk2dgHx74dn2pV54h64GUQBVQU9QgEEIMwbfaEsNYWxrp5BZ4rcHYIXtnYIkXzH1DF2AttTS+qfZXYp5d2u8mndAsjmA6UaeGYUTEGPvMCcW2kxiNehRyiJb6RSoQuYlk5s9YBoZew+rPADZxKEVsGMOj5W+DGaekVTg1oQBRiUwxgem6cbOQ7wVyNbbdzJhBGvbD5xHE0e7DtCtz14fcAyOQ6rKRqe+J6h2ueaLz/J4wp9RgP21xReieTbQwxhjiwAAAABJRU5ErkJggg==&quot; height=&quot;18&quot; width=&quot;77&quot;&gt;&lt;/span&gt;&lt;/li&gt;&lt;li&gt;&lt;span style=&quot;font-size: 11pt; line-height: 107%;&quot; lang=&quot;en-DK&quot;&gt;&lt;span style=&quot;font-size: 11pt; line-height: 15.6933px;&quot; lang=&quot;en-DK&quot;&gt;&lt;img src=&quot;data:image/png;base64,iVBORw0KGgoAAAANSUhEUgAAAMYAAAAXCAMAAABnJ8DlAAAAAXNSR0IArs4c6QAAAMNQTFRFAAAAAAAAAAA6AABmADo6ADpmADqQAGZmAGaQAGa2OgAAOgA6OgBmOjoAOjpmOjqQOmZmOmaQOma2OpC2OpDbZgAAZgA6ZgBmZjoAZjo6ZjpmZjqQZmaQZpCQZpC2ZpDbZra2ZrbbZrb/kDoAkDo6kGYAkGZmkGaQkJBmkLaQkLbbkNv/tmYAtmY6tmZmtpA6ttuQttvbttv/tv+2tv/btv//25A625Bm27Zm2//b2////7Zm/9uQ/9u2/9vb//+2///b/Y5OqQAAAAF0Uk5TAEDm2GYAAAAJcEhZcwAAEnQAABJ0Ad5mH3gAAAAZdEVYdFNvZnR3YXJlAE1pY3Jvc29mdCBPZmZpY2V/7TVxAAADGklEQVRYR+1Wa1fTQBDNBosStVVslIcINKJIWx8IS0y2Jv//V3FnZnezSaq0p3zweLofeshm5s6dO48QRduzVWCrwP+sQJ0peyYbpVkqtXNLCCaJzzdCigCF8+RqHZQqHSPyJDLPp+u49W21igkBsuytCVRn47aHBlJ9wXCrnhJByc2MilVdltvpVyxE+TTpkHoQNledRtBU17J7+yDObNelkL9U8SkknUPSPGE98kQNvowKXJFVyXfmQKk3bdg6O0FNo+rwUlRskHYLIE3gLy/El+HonsqHE1awzjgSp2FhNHcs8ZS/PIinidCpA9HxVUTafJ3qnctz8wIOGp1eIsrdtHRIUY47Viw41bufaM9Ij+WFQyK3y3MQ+zSl9gUv8fX3INyoKHhiOCMcB8NPnF6dgawFCWiSPiQjC0X9IElpJa3BV2JA/BiEH7tplLu/0OJmeEMWPaQZtGF2jS9HmMGYMcNDdUC12NoRonAmIQYfMQCegKNJ7tIoTgBJwynEmogBhWQqePc7706A3iM6s0kgpUVqZd/4ir5Mszvh1GUDWlQcnWGIAk+f2Q8JhIVkYxyRhRVwy0OuWHkRE0DUzPHwR1vBOpsgvXxUcEt3kVg+asrGlyPIfXcleW4BDIyqo++IPg8JhDvOF1VkYVTXZ3wlI8cbmTLuqUcJVW+h1uAQPz7lAIkxiV3j6zPrT5kf1TYhPa7SSYlidECsniw/U2k4O4X4ShqQxDSJp3LX3uolXtAmkJS7SH6shAH5+sx6E+5HNYQxydlxUaVnR64vGhCbhvYLGnrVcy6xG2BUqshPUp7weLp4f7FXf77JnhX1N6jSNKJI7RPlxxDJFsLs196XI8wAd4sKL47x4LqC1oE9DUyV8m7GDxk6AsGeoU+/9auw0ofXfkoIq0ziU/nA4+V+odXgOlocqPiD/dLY2Npu/ipVXLo2ktRgrl4X3tcOHcEZfJiCoIDyw+JhJEeXqCPQ23Htee08af917JuhXf/qu8bLR4RaGpU27Z/OfMN/AwPcR4RaxnbpZlpD5X/E1CTcutuzVWBFBe4BnviKSyt/gtMAAAAASUVORK5CYII=&quot; height=&quot;18&quot; width=&quot;158&quot;&gt;&lt;/span&gt;&lt;/span&gt;&lt;/li&gt;&lt;li&gt;&lt;font style=&quot;font-size: 14px;&quot;&gt;Optimal operational strategy&lt;/font&gt;&lt;/li&gt;&lt;/ul&gt;&lt;/div&gt;" style="whiteSpace=wrap;html=1;align=left;" parent="1" vertex="1">
                    <mxGeometry x="120" y="840" width="260" height="150" as="geometry"/>
                </mxCell>
                <mxCell id="59" value="&lt;ul&gt;&lt;li style=&quot;text-align: left;&quot;&gt;&lt;span style=&quot;font-size:11.0pt;line-height:107%;font-family:&amp;quot;Aptos&amp;quot;,sans-serif;&lt;br/&gt;mso-ascii-theme-font:minor-latin;mso-fareast-font-family:Aptos;mso-fareast-theme-font:&lt;br/&gt;minor-latin;mso-hansi-theme-font:minor-latin;mso-bidi-font-family:&amp;quot;Times New Roman&amp;quot;;&lt;br/&gt;mso-bidi-theme-font:minor-bidi;mso-ansi-language:#0C00;mso-fareast-language:&lt;br/&gt;EN-US;mso-bidi-language:AR-SA&quot; lang=&quot;en-DK&quot;&gt;&lt;img src=&quot;data:image/png;base64,iVBORw0KGgoAAAANSUhEUgAAAIQAAAAXCAMAAAD9aBd4AAAAAXNSR0IArs4c6QAAALFQTFRFAAAAAAAAAAA6AABmADo6ADpmADqQAGZmAGa2OgAAOgA6OgBmOjo6OjqQOmaQOma2OpC2OpDbZgAAZgA6ZgBmZjoAZjo6ZjpmZjqQZma2ZpDbZrbbZrb/kDoAkGY6kGZmkGaQkJBmkJC2kLbbkLb/kNv/tmYAtmY6tmZmtpA6tpBmttv/tv/btv//25A625Bm25CQ27Zm29uQ29u22////7Zm/7aQ/9uQ/9u2//+2///b7s2JqwAAAAF0Uk5TAEDm2GYAAAAJcEhZcwAAEnQAABJ0Ad5mH3gAAAAZdEVYdFNvZnR3YXJlAE1pY3Jvc29mdCBPZmZpY2V/7TVxAAACNklEQVRIS+1W21bbMBC0HAgRtAlxCS0BpxeIKTfRFKuy9f8f1tWuJMsOjgy8cE7rl0SWZnc0O9I6Sf4/710BffvxIeQopndxyq8C9YfV+XHZnlUfLmIsXgUKg1YrztjeuX2l8/lWRnW47geYmQGg3dtQfHyXbJjbrBy1akFYMQ7E6QDMfBy0m0OdmQT1iU2t88kz60MpOgASIgaKlLNIW1Ir7iTZcDYu7TCUuwMw4WMgtUivkmqRQuhqAaVfIvNrNkk23KSvs/YmpOMk0stEzAtbh8Kv6gKwGrtBavabz/W3sphDullZkW4/12L0/VwdQQmkNwMp5uIpDv6UB5+sTI7MNmAQCKXS+QVpJqz1BbN/io4PhR3jewmC0dOQ6ALQtzEQbq3+/GCEbyzugurc+54yWiXIal7mhkQAQHK4mRiIWKIAiu87D3qjhTGhZD5encEgmPSe6JAwEsdBuIf6C2pQrZwBGjuTuiY/xbMzSEL4auDQFsYDzJiOdhw0SfRXWKlmwXludJZsmegbLBnGs0cefsrNrJhUZ5ga7wlbIg+A88X2sJo7QAiH+erUVEGO1sDY+bKx46O5s6cQSpI77OUneboEKaxj8Ma0qRoAHmLM0g8i+QSjJvjnlDGI65g5dZtfQSehvw3UWauPYfkKevXm3mFpkCUwYE8XvXY9jtaZEtXuHnlzF6WYEO8X9Y+BnwZAolod3f+gcz8QtF2A1hudm6v9BY9eselTtj/gg+cFQf/tpX8BxkdS3IXPRgoAAAAASUVORK5CYII=&quot; height=&quot;18&quot; width=&quot;106&quot;&gt;&lt;/span&gt;&lt;/li&gt;&lt;li style=&quot;text-align: left;&quot;&gt;&lt;span style=&quot;font-size:11.0pt;line-height:107%;font-family:&amp;quot;Aptos&amp;quot;,sans-serif;&lt;br/&gt;mso-ascii-theme-font:minor-latin;mso-fareast-font-family:Aptos;mso-fareast-theme-font:&lt;br/&gt;minor-latin;mso-hansi-theme-font:minor-latin;mso-bidi-font-family:&amp;quot;Times New Roman&amp;quot;;&lt;br/&gt;mso-bidi-theme-font:minor-bidi;mso-ansi-language:#0C00;mso-fareast-language:&lt;br/&gt;EN-US;mso-bidi-language:AR-SA&quot; lang=&quot;en-DK&quot;&gt;&lt;img src=&quot;data:image/png;base64,iVBORw0KGgoAAAANSUhEUgAAASAAAAAZCAYAAACRgfNRAAAAAXNSR0IArs4c6QAAAAlwSFlzAAASdAAAEnQB3mYfeAAAABl0RVh0U29mdHdhcmUATWljcm9zb2Z0IE9mZmljZX/tNXEAAA+xSURBVHhe7Vy/cxvHFX7HUU/3bAEUNFp5hoB7GmARpggKNnAKHl2Z5xmziTGgCLGDZgSqMpAiQkNPkMLMjAFIdQxoxmxhZIRDSvXmHyBsvrd7e7/w4w6UElLWXSfw8Hb327ffe+97Cz04Ozuj5EkQSBBIELgLBB7cxaDJmAkCCQIJAoxAQkCJHyQIJAjcGQIJAd0Z9MnACQIJAgkBJT6QIJAgcGcIPKhWD8RFPk3WcPUczJ6greuacWczvaOBqw/fCKPYckY3qSeadF0L4lA92BT5tEVDypHZawOny48OJwYoiJVvw3I5alTadPOR4hLlup7/qDdzDZt2b5QPHXzycpY5HhpC/gX+N2tS0aCNs1pNfXRPnoOHb2blvZYx5FnlTGo8/56stBE5T2RANo1BPnrRGoysQzjq3x3aThMc6J6s9v84jdr1lmE3ciItGXpEk2lwcE3gkr/NygdNPnotnZJ3ANaB2sOKqGEP6OayZkibRwhwxTJ/JvizdWx+DO/WLm+Mds8UaQ50Zs8lH1576us2Pf01Q1ZrhxqTe0o+TJJFMp5OZjQE6djP8m8zXz4zJj8fz9LV6kZtBVk+oP4VtbDoM4dxp92OjOQlP+HkSrSXIrr8GLxhyRpzpknUGs3/tV8nK2tSbgjn+cBZesprAZOaFWz2OwWbLGUcE7XapVHdN4XVatHYJtr6iH1o1dJT6W2cOjyLfAhul2s8JyuDzOfsfmU+yHpnG3tMPj+7GU/qYZbo1RipjaA0rY43DzhqnW153mardMglHGbn3V2QT60WwA8plyift2goQz9KjwZKD4fEOOr1j8pUbLE3g9y2rg35PhieyU1HR23Q+5uTvlW2qXNO1B4cU4qm5NrCvGx8hrnIVamUfzRnj7O2o7JFPLycXYOjyvWtIq/KCk4pWyoh/wkeomr1oTjKv6RGKUsWrwssfRNi6dg4OWvDYknjZPYG1Cz41r8AO4nDkvUG9mGJfS6rdeaTPlV4tZDj4xF67+JyhsaKELAQvyI5bBU2B5svnawzWPY+fHMqiiPPD5a9FwuTGL7pX7tnE3uNvblh7A7gA+UifI3L74ErU3ifOxZQhpol74zMYZrKEI4tfCz0vKjTN/SUXh+nKX1MFDqGcbfGfa968NnsqPyjsT9ANkVeKVet4vP8a+PkZ5w5lHirshZtDPs9u/g8Y4jDn0COKLcC5DgiG9WCAUdYddMwIELLA8W+Z2bcQ75ohXLTMftGD6k66np2pHQxjQ0Qgh26f1SnycmA7O08pa0r2myQqNMJDextyqfHbnRk29qW6dhSpGJJ4mKiOdh8I9iW2D8io8is6j39K2QdPrKU9vj76Zf4uk1nPDfpyFdUEU0R1m7i7R6XqCbtDzIElqERajAdxacX5zSCU51QGX/yor62G4XT9ELhpNfWvTiicQY4iROSutz5BW1fjYn4nWafjowidbpTQjxwn1XrncJelH17UBVwNoN2z6iXDR7uaAoJI6jL+b2A/8h9gn6xX4BFJ9ZFYXN5s2v0zKFw5TdYcAnON2zquE2NDrDK7rva3CpM+kcKkzi+GSaffD1D7XaDRtD7OvCDgSwvu9geQfs4OOeOb6hzVKQRfNgeFCg17dMFSMpCCni2RgooSWHjsfH0dZPgfZF6SpQ/Vw8+meUzBSPbnSgdyUcYtdovG3/Mns7Kz4rG0EpTrPvJ0x79Y4jS8G8FspoY3clR5H4Lk9LIglkSCqYuwVkGu2DTiWRg0+8poVUpTQh5DIQyLSqmCvtwrxa1rvoS4OutLQMeSLTJ47eoA9pgoqrB+XbxAohAWvXbcoVbJxXNOnO4vFG2ppsj2OIYoR7XGbMeWSp7p0yE708w5xI1tw2SSdM2cmQdoeRY5SxVBkTdvKxbAuJ0HJyCaxsGcEIWK6hl0biCtbBuAqcOO1jUeiPtw63dbNLJ9MiHZ5RDz/2dsWL/ceovLwPjOHHi4hMHG7adZsD9z7RLHZnVBgMRZ+CNkwKyz2vHp5b7QFzfDK9NVgKoFFK0KfchizVK4oa/I0sXXThGdt+pO51zxD6s8T0o5USH88IIIXUIktp1SGr67DH99bBCQmYXZ+8kOisyKxj0dIIMN72wlEt9mqNXx0+oO2vOisZq7YYxmPb+TkMxpEFmg/85cxJoBR3OTFT5xa8FCcgez+s/oZ3o17nbg7T4OAWHWu2iupxr413mo/Cz0NaSOUhbgUPuRFufWCXtISNqI9Km0gdiatdRzjBZtuc6V3EP13QiPQtOph7tIDxWFuRQoD5dcdUaEM2I1sYJmFYcTF1yRQR1O4/aqbW4grnEXa/EboH94Jzn8YyLkX5PYoVHl3Cnp3BJ7oigM+jvgMXFJpVRRYkW/lmfJGhxOWhxbjOASSlboV1H3F4LE/aVJb65dO0L/RPY+TM8p5zigGw3q4JJiDO63ZUqqgpw+pEkjfV33xao2AT3vGPtJckMWUn36zQVUcpVCeVTPmNY2S5vmCQ4ibfBpZNA6WSsLJ14nvavSq6B2Ex4XZZtyP5mX23sGc1smsBLkZpVgIB0quzz8cA+eAfDS3flC87hyPkENP1urhRMx12AdcQ1g7aUEwfLGV0a5hq+CCLHhFju6C7u3IYWwLBgI0e5HDIU26bry9u1xbVNs1KQ0U5mJaMJHexDz3oJ5+W0MxT1eX23wsmXIZAT6Xlct2aRjg+Scj6Ku153HxbYz/rFZrmOxTpWXCLSAcev0/F3QT7ewVqy74t8yD+u0tveUKW9Tee+ZkC/3qESSiqZ/WjbET4Q5Zur1rvIP3UpvuVok7XatdG0G2IEnSI9AgG3m2t1/7Qml+3OqBjjEEftj8p+To0dCNmuvepnNH4lEDhT8KuoQml+BKX/PDJ2SsUg0Ug/gnz4hwK1fGXZsjm6BLT00AS+uSRKOlEhIMI6hyjg5BG2loqYIbJhMzqKemcoeJ1ADwXyidqfFX9nmzm3MSFLgtGY6ucjKoF9lEbFpWFQ33CvNoSyIoqL04Ioq/UuT9yNud5F+xAiMxVD5ol/HeDi6odrYSPLcSX8T7tKb2umbLrCkeHPmtD78m+87Cd8pWSpD0T65vKVK5L1RHZFjJtomASzfC7ZBnZPXNTPuTvk6qOxMOVuJCGzQMWkkx954I/KhiU7K6rp07JSkRmGHM+XPbvX/V78iIwoR0+h3Q6REbFQI31AZKHdGDEoSfkf/clbkStKI9MC/1AM/vGVYM6mhEuJKMA0W4fFYH3YwmdwZXS5gJgrs7pQ1iQPDLIZp8RWGgLvA9eZq6VSFrG7e015JyVqLXN/l/pPiWznCoJMUdFul9cW9B0XdMjidH3WwSlMBov0rmVrmVtvLDLD0Q0drLWxiqEfLrO5FBv3C32qd0rykDPJqAeiPDqlFYi81ywurnjiYLLWeh2dTN1xqqNBoYIR25C+CbEaepFRu7w2qs02smaI5I4+umwcvq6gMuxzykNIa9hB4Xn6rIxuWIUmokDp6QXlM7hXNRnMrHT1VuK038fkvJng8o8MYX5He7fNukCc3+AmYq7xLWyEu2KLV+5mQOr+jycgLnqdU8t9k0Sr04UzVIVukVvIEhq21x7n70ZHVFXzthDK2qiTuf1cn5SQS2AWoRpQawtc98v2Zn1CJVzLGUJE5TlsvtkUfUckbo0xN9iTcwOhlceIkDeLyUc7vpVVVwXCa1YlaSP0MfSvpuP0WhQNaaXvitM8GXiZZ3VvIh28GnO9S/cBh0hjl2kiBB6BSIdK3FUt5AkO1rEnHOsb88uwktqgv02w2OHWwYa0llI8ly1uPuS8Z+w3lvNZsLOpfWq1D0T75uK5e4HAwShfpu32IKgvMuG3xlSynbJr3cDO91q4wYMAp9vXuoQ67H5BGWgtQuy9Le18Y3TQ6UV6JfvcikCCmo67ilSRSjsWuqrPQGC4HDjdpCM0UA5z0NL+g6QnNZ3xWbG4o/Xc62jpjMb69CdHJ/LuIGEfN/YPxeyvY9uYiLS0+XnmlMRhl9BFk5mZ/P5XXxoW0rjG5DllnvyZ9lro6Pp0I0lAqvWtkjMWEHU7fdE2FJo9MvOobaXOguAPkbEHtr72ZRheORfsDPntyQtqFVN0irDVUillc69LeSt0CRJfSh1XyOygjYlUtoPso80H5qJDloXrl6ixeyiH2BGr7Z4Yo92pNSCzUcG73IlY/1adbBNLWR+a0lFGdvfknSlsNnfxdKtVogbNoXyxF2iP3xYnT+/yskB1aHOiBWfLj1l7UppU1HqX7YMsJcPYnTREDl23osFXGzxMFx/F4KceVuw/+cgbz3GwUSM4wixE5rmfAclb58HAIn0qwgfi+OayNbN97max32GV0KNAPnOZ9TaZOfgmfBWPOD1l37bdO3Kr8FRdP2T6Cxs8kAJQGnFthHlsfJYVs+F4ig/QoI+Qi/n9arsxG5ePDVCUu78F4kzKIMv5+QSf40KKNm5i/syjcNKjw/IeSFEakOsc+MrC6bMeZb59To1RhjpfPqHS83/RrPmCIFLTk/7XkmskAamD5bsutKK9xYdhC3dGznyXUbAJAVx5o/heyVnEVTQedxfjSlO4wTftvhRDlDzt0K3r4JjXDqHs4q6CmoQen1PewNzQ8lxNPiqzCIi9zkq4a6HtLyry5Jwwdxe10A3E2+Kk7eJSZwDT6y09nxv3UmjUepftg39tHnZoM+u98GHqTSIuVryVq9ujcbCRfrnAj6J867aYxCFafsfD7sb1O/93a9c38EH4Jt/e1U/4duqSwZRtFeDWf6ZSVDYrX1CrNS8q1y5/2/CfDd53Dsu7j5zz5+x5MFQ7e/6XxYIysIbNRx4XYJ1+Grn87beNasqe/XO4Y5Req9+GIXV4i6HcaiPYhl9/1e/1G7L0QLTT9fR7Nb7AWJ9FBKSxH+OPbNfFNsFqXcTe9/sQ3tEe5xqsKpRe4+9gvTh6jAtpNmcV8YTpGNOTe45Li61C9I9Kl5pjHXWnRK+RvbHWTVMb3etD+s4Rqe8NAS1stccA6V1e4awCFyDfxcRH890Eq7vbanlL+ZBmhXP8wBMajrym8WoHJY3Xwfpla3eDfTnWDeaYS8GeK5vrKxjuCFObu6vb6t/T/uyrjEXi6WtcB1BEeW8ISLcKh506amv8bOI2XauYwCavJQh8aAh8gZ/imPkCEiALU1f/7ct9/HGqH1d9V0hAWM9sOPNuvHZFan733hCQvOruaBBhTelDc5ZkvgkC7xsBzoIC+uZ7znbe93yVPZv+PTzE/2H0PRUMQ/3A9eaHQJZ2bwjofwNAYjVBIEHgzhCQt6Jb1Px8m3+uMasu+L+BEgK6s91JBk4Q+H0jgC73xiN02dAXpR8eL+7sJQT0+/aBZHUJAvcagf8C4Je6DqzqQt4AAAAASUVORK5CYII=&quot; height=&quot;20&quot; width=&quot;230&quot;&gt;&lt;/span&gt;&lt;/li&gt;&lt;li style=&quot;text-align: left;&quot;&gt;&lt;span style=&quot;font-size:11.0pt;line-height:107%;font-family:&amp;quot;Aptos&amp;quot;,sans-serif;&lt;br/&gt;mso-ascii-theme-font:minor-latin;mso-fareast-font-family:Aptos;mso-fareast-theme-font:&lt;br/&gt;minor-latin;mso-hansi-theme-font:minor-latin;mso-bidi-font-family:&amp;quot;Times New Roman&amp;quot;;&lt;br/&gt;mso-bidi-theme-font:minor-bidi;mso-ansi-language:#0C00;mso-fareast-language:&lt;br/&gt;EN-US;mso-bidi-language:AR-SA&quot; lang=&quot;en-DK&quot;&gt;Power curve, Thrust curve&lt;/span&gt;&lt;/li&gt;&lt;/ul&gt;&lt;div&gt;&lt;span style=&quot;font-size:11.0pt;line-height:107%;font-family:&amp;quot;Aptos&amp;quot;,sans-serif;&lt;br/&gt;mso-ascii-theme-font:minor-latin;mso-fareast-font-family:Aptos;mso-fareast-theme-font:&lt;br/&gt;minor-latin;mso-hansi-theme-font:minor-latin;mso-bidi-font-family:&amp;quot;Times New Roman&amp;quot;;&lt;br/&gt;mso-bidi-theme-font:minor-bidi;mso-ansi-language:#0C00;mso-fareast-language:&lt;br/&gt;EN-US;mso-bidi-language:AR-SA&quot; lang=&quot;en-DK&quot;&gt;&lt;/span&gt;&lt;/div&gt;" style="whiteSpace=wrap;html=1;" parent="1" vertex="1">
                    <mxGeometry x="550" y="840" width="290" height="130" as="geometry"/>
                </mxCell>
                <mxCell id="63" value="&lt;i&gt;&lt;b&gt;&lt;font face=&quot;Comic Sans MS&quot; style=&quot;font-size: 14px;&quot;&gt;Outputs&lt;/font&gt;&lt;/b&gt;&lt;/i&gt;" style="text;strokeColor=none;align=center;fillColor=none;html=1;verticalAlign=middle;whiteSpace=wrap;rounded=0;" parent="1" vertex="1">
                    <mxGeometry x="140" y="810" width="90" height="30" as="geometry"/>
                </mxCell>
                <mxCell id="65" value="&lt;b&gt;&lt;i&gt;&lt;font face=&quot;Comic Sans MS&quot; style=&quot;font-size: 14px;&quot;&gt;Plots&lt;/font&gt;&lt;/i&gt;&lt;/b&gt;" style="text;strokeColor=none;align=center;fillColor=none;html=1;verticalAlign=middle;whiteSpace=wrap;rounded=0;" parent="1" vertex="1">
                    <mxGeometry x="610" y="810" width="100" height="30" as="geometry"/>
                </mxCell>
                <mxCell id="68" value="" style="edgeStyle=none;html=1;" parent="1" source="66" target="4" edge="1">
                    <mxGeometry relative="1" as="geometry"/>
                </mxCell>
                <mxCell id="66" value="&lt;font style=&quot;font-size: 14px;&quot; face=&quot;Comic Sans MS&quot;&gt;Sorted Input Data&lt;/font&gt;" style="whiteSpace=wrap;html=1;" parent="1" vertex="1">
                    <mxGeometry x="-40" y="380" width="120" height="60" as="geometry"/>
                </mxCell>
            </root>
        </mxGraphModel>
    </diagram>
</mxfile>